HIERARCHY
ROOT Hips
{
	OFFSET 0.00000 0.00000 0.00000
	CHANNELS 6 Xposition Yposition Zposition Zrotation Yrotation Xrotation 
	JOINT LHipJoint
	{
		OFFSET 0 0 0
		CHANNELS 3 Zrotation Yrotation Xrotation
		JOINT LeftUpLeg
		{
			OFFSET 1.38615 -1.80049 0.80104
			CHANNELS 3 Zrotation Yrotation Xrotation
			JOINT LeftLeg
			{
				OFFSET 2.50172 -6.87341 0.00000
				CHANNELS 3 Zrotation Yrotation Xrotation
				JOINT LeftFoot
				{
					OFFSET 2.67523 -7.35014 0.00000
					CHANNELS 3 Zrotation Yrotation Xrotation
					JOINT LeftToeBase
					{
						OFFSET 0.17446 -0.47932 2.13155
						CHANNELS 3 Zrotation Yrotation Xrotation
						End Site
						{
							OFFSET 0.00000 -0.00000 1.10023
						}
					}
				}
			}
		}
	}
	JOINT RHipJoint
	{
		OFFSET 0 0 0
		CHANNELS 3 Zrotation Yrotation Xrotation
		JOINT RightUpLeg
		{
			OFFSET -1.18047 -1.80049 0.80104
			CHANNELS 3 Zrotation Yrotation Xrotation
			JOINT RightLeg
			{
				OFFSET -2.59789 -7.13765 0.00000
				CHANNELS 3 Zrotation Yrotation Xrotation
				JOINT RightFoot
				{
					OFFSET -2.62125 -7.20183 0.00000
					CHANNELS 3 Zrotation Yrotation Xrotation
					JOINT RightToeBase
					{
						OFFSET -0.31287 -0.85960 2.07814
						CHANNELS 3 Zrotation Yrotation Xrotation
						End Site
						{
							OFFSET -0.00000 -0.00000 1.11766
						}
					}
				}
			}
		}
	}
	JOINT LowerBack
	{
		OFFSET 0 0 0
		CHANNELS 3 Zrotation Yrotation Xrotation
		JOINT Spine
		{
			OFFSET -0.01587 2.16157 -0.12309
			CHANNELS 3 Zrotation Yrotation Xrotation
			JOINT Spine1
			{
				OFFSET 0.04727 2.16674 -0.03569
				CHANNELS 3 Zrotation Yrotation Xrotation
				JOINT Neck
				{
					OFFSET 0 0 0
					CHANNELS 3 Zrotation Yrotation Xrotation
					JOINT Neck1
					{
						OFFSET -0.08586 1.60335 0.32783
						CHANNELS 3 Zrotation Yrotation Xrotation
						JOINT Head
						{
							OFFSET 0.07583 1.65857 -0.31618
							CHANNELS 3 Zrotation Yrotation Xrotation
							End Site
							{
								OFFSET 0.03386 1.69434 -0.14584
							}
						}
					}
				}
				JOINT LeftShoulder
				{
					OFFSET 0 0 0
					CHANNELS 3 Zrotation Yrotation Xrotation
					JOINT LeftArm
					{
						OFFSET 3.17393 1.01901 -0.52897
						CHANNELS 3 Zrotation Yrotation Xrotation
						JOINT LeftForeArm
						{
							OFFSET 5.25287 -0.00000 -0.00000
							CHANNELS 3 Zrotation Yrotation Xrotation
							JOINT LeftHand
							{
								OFFSET 3.51014 -0.00000 0.00000
								CHANNELS 3 Zrotation Yrotation Xrotation
								JOINT LeftFingerBase
								{
									OFFSET 0 0 0
									CHANNELS 3 Zrotation Yrotation Xrotation
									JOINT LeftHandIndex1
									{
										OFFSET 0.70618 -0.00000 -0.00000
										CHANNELS 3 Zrotation Yrotation Xrotation
										End Site
										{
											OFFSET 0.56934 -0.00000 -0.00000
										}
									}
								}
								JOINT LThumb
								{
									OFFSET 0 0 0
									CHANNELS 3 Zrotation Yrotation Xrotation
									End Site
									{
										OFFSET 0.57803 -0.00000 0.57803
									}
								}
							}
						}
					}
				}
				JOINT RightShoulder
				{
					OFFSET 0 0 0
					CHANNELS 3 Zrotation Yrotation Xrotation
					JOINT RightArm
					{
						OFFSET -2.99471 1.26495 -0.61125
						CHANNELS 3 Zrotation Yrotation Xrotation
						JOINT RightForeArm
						{
							OFFSET -5.28721 -0.00000 -0.00000
							CHANNELS 3 Zrotation Yrotation Xrotation
							JOINT RightHand
							{
								OFFSET -3.50544 -0.00000 0.00000
								CHANNELS 3 Zrotation Yrotation Xrotation
								JOINT RightFingerBase
								{
									OFFSET 0 0 0
									CHANNELS 3 Zrotation Yrotation Xrotation
									JOINT RightHandIndex1
									{
										OFFSET -0.88500 -0.00000 -0.00000
										CHANNELS 3 Zrotation Yrotation Xrotation
										End Site
										{
											OFFSET -0.71351 -0.00000 -0.00000
										}
									}
								}
								JOINT RThumb
								{
									OFFSET 0 0 0
									CHANNELS 3 Zrotation Yrotation Xrotation
									End Site
									{
										OFFSET -0.72440 -0.00000 0.72440
									}
								}
							}
						}
					}
				}
			}
		}
	}
}
MOTION
Frames: 13
Frame Time: .0083333
10.6913 17.8498 -12.4010 6.1471 -47.4182 0.3929 0.0000 0.0000 0.0000 -25.9731 6.5247 -9.7075 0.6343 5.0959 14.1824 0.3555 -6.5620 -10.8837 0.1519 -2.5111 -6.9205 0.0000 0.0000 0.0000 6.6400 -2.2424 -7.6204 -1.4167 -7.5275 21.2879 -0.4619 -10.6694 -20.8043 -0.5711 4.8396 -13.4515 -4.1040 1.9278 -2.2298 0.7794 2.6505 -0.8086 3.1575 1.3345 0.1952 -2.5977 8.3165 -19.7321 2.7390 11.7971 25.1697 3.1647 5.4214 11.0568 0.0000 -0.0000 0.0000 -86.6936 -7.9681 29.9982 27.1641 -38.3353 -9.6008 -0.0000 -0.0000 7.2499 4.7763 39.3862 3.0350 -7.1250 0.0000 -0.0000 -39.4103 65.2813 -20.7548 0.0000 -0.0000 0.0000 87.2616 10.1867 29.7982 -24.4661 35.6533 -7.9766 0.0000 -0.0000 -8.2280 -17.5611 14.3618 -4.4884 7.1250 -0.0000 -0.0000 6.7510 -15.0189 4.8050
10.6696 17.8362 -12.3263 6.3023 -48.8014 -0.3345 0.0000 0.0000 0.0000 -26.1950 6.8810 -8.8036 0.6292 5.0756 14.1242 0.4140 -5.0638 -11.4751 0.1832 -2.7569 -7.6026 0.0000 0.0000 0.0000 6.2943 -1.6980 -6.9877 -1.4103 -7.5113 21.2393 -0.4978 -10.0643 -20.5521 -0.6449 5.1374 -14.3008 -3.6065 2.3654 -2.7631 0.5786 3.2540 -0.3054 2.7229 1.6115 0.9993 -0.8977 8.4962 -20.7100 1.3026 11.9651 25.8807 2.5179 5.4166 11.7434 -0.0000 -0.0000 0.0000 -86.5161 -8.1490 30.2703 26.9673 -38.1480 -9.4789 -0.0000 -0.0000 7.6961 5.8703 38.7359 3.6811 -7.1250 0.0000 -0.0000 -37.3876 65.0935 -19.3894 -0.0000 -0.0000 0.0000 87.5373 10.2185 29.9600 -24.6754 35.8704 -8.0990 0.0000 -0.0000 -8.2004 -17.2910 14.2240 -4.3740 7.1250 -0.0000 -0.0000 6.9322 -15.1861 4.9108
10.6783 17.8427 -12.3360 6.1184 -48.5640 0.0628 0.0000 0.0000 0.0000 -26.1020 6.9278 -9.1735 0.6279 5.0704 14.1094 0.4013 -5.4202 -11.3338 0.2214 -3.0288 -8.3591 0.0000 0.0000 0.0000 6.4753 -1.6001 -7.1612 -1.4004 -7.4859 21.1631 -0.4807 -10.3458 -20.6620 -0.6272 5.0676 -14.1014 -3.6252 2.2728 -2.9524 0.6254 3.1371 -0.3328 2.7865 1.5516 1.0821 -2.1540 8.3815 -20.1868 2.6266 11.7929 25.2345 3.0879 5.4375 11.2074 -0.0000 -0.0000 0.0000 -86.5453 -8.1889 30.5579 26.8288 -38.0154 -9.3935 -0.0000 -0.0000 8.2308 6.5116 38.4451 4.0594 -7.1250 0.0000 -0.0000 -36.3352 65.0472 -18.7371 -0.0000 -0.0000 0.0000 87.6608 10.2809 29.9582 -24.7753 35.9734 -8.1575 0.0000 -0.0000 -8.2396 -17.1575 14.2922 -4.3585 7.1250 -0.0000 -0.0000 7.0245 -15.1278 4.9861
10.6835 17.8445 -12.3333 5.9246 -48.6992 0.2799 0.0000 0.0000 0.0000 -25.9946 6.9814 -9.3002 0.6284 5.0722 14.1147 0.3953 -5.3882 -11.2488 0.2267 -3.0647 -8.4590 0.0000 0.0000 0.0000 6.5983 -1.4849 -7.1718 -1.3835 -7.4425 21.0332 -0.4798 -10.2779 -20.5847 -0.6013 4.9640 -13.8059 -3.5343 2.2975 -3.0444 0.7109 3.1693 -0.3334 2.8288 1.5670 1.1307 -1.6078 8.3953 -20.5078 2.0006 11.8300 25.4339 2.8195 5.4067 11.4306 0.0000 -0.0000 0.0000 -86.7176 -8.0642 30.6293 26.8358 -38.0222 -9.3978 -0.0000 -0.0000 8.4512 6.2169 38.7652 3.9019 -7.1250 0.0000 -0.0000 -37.0783 65.2142 -19.3100 0.0000 -0.0000 0.0000 87.6545 10.3212 29.9735 -24.7288 35.9255 -8.1303 0.0000 -0.0000 -8.0906 -17.1383 14.7284 -4.4828 7.1250 -0.0000 -0.0000 7.0464 -14.6799 5.0699
10.6863 17.8410 -12.3224 5.9428 -48.9040 0.1080 0.0000 0.0000 0.0000 -26.0280 7.0461 -9.1491 0.6332 5.0914 14.1695 0.3912 -5.0939 -11.1665 0.2061 -2.9228 -8.0639 0.0000 0.0000 0.0000 6.5257 -1.4889 -7.0245 -1.3805 -7.4349 21.0102 -0.4884 -10.1136 -20.5060 -0.5992 4.9553 -13.7810 -3.4494 2.3519 -3.1154 0.7180 3.2445 -0.1600 2.7997 1.5982 1.3474 -0.8549 8.4128 -20.6141 1.0193 11.8860 25.2540 2.3662 5.3715 11.5112 0.0000 -0.0000 0.0000 -86.8912 -8.1019 30.6493 26.8157 -38.0029 -9.3854 -0.0000 -0.0000 8.5316 5.7193 39.0015 3.6066 -7.1250 0.0000 -0.0000 -37.9141 65.2560 -19.8387 0.0000 -0.0000 0.0000 87.6187 10.4269 30.0238 -24.6864 35.8817 -8.1054 0.0000 -0.0000 -7.8554 -16.9181 14.8484 -4.4570 7.1250 -0.0000 -0.0000 7.1982 -14.5767 5.1968
10.6870 17.8340 -12.3101 6.1336 -49.2029 -0.2686 0.0000 0.0000 0.0000 -26.1807 7.2065 -8.9167 0.6358 5.1017 14.1989 0.3960 -4.7253 -11.2079 0.1996 -2.8766 -7.9353 0.0000 0.0000 0.0000 6.3318 -1.4271 -6.8011 -1.3772 -7.4263 20.9846 -0.4885 -10.0000 -20.3937 -0.6073 4.9883 -13.8751 -3.4609 2.4328 -3.0579 0.7122 3.3526 -0.0574 2.8041 1.6495 1.4125 -1.3299 8.3524 -19.8606 1.2310 11.8451 24.4746 2.4312 5.3793 11.0241 -0.0000 -0.0000 0.0000 -87.1359 -8.0423 30.5586 26.6052 -37.8001 -9.2561 -0.0000 -0.0000 8.7867 5.8860 38.5878 3.6791 -7.1250 0.0000 -0.0000 -37.1657 64.9829 -19.1659 -0.0000 -0.0000 0.0000 87.5635 10.2343 30.0752 -24.7207 35.9171 -8.1255 0.0000 -0.0000 -7.6758 -16.6155 14.6034 -4.3026 7.1250 -0.0000 -0.0000 7.3989 -14.8567 5.2995
10.6875 17.8293 -12.2996 6.2451 -49.5411 -0.3382 0.0000 0.0000 0.0000 -26.3063 7.2161 -8.9284 0.6386 5.1127 14.2302 0.4154 -4.4433 -11.4668 0.2402 -3.1537 -8.7070 0.0000 0.0000 0.0000 6.2098 -1.2116 -6.8119 -1.3731 -7.4156 20.9525 -0.4935 -9.8731 -20.3182 -0.6055 4.9809 -13.8541 -3.5342 2.4668 -3.0827 0.7850 3.3986 -0.1520 2.9196 1.6752 1.3170 -2.7839 8.3591 -19.3287 2.6174 11.9002 24.1547 3.0908 5.4798 10.5969 0.0000 0.0000 0.0000 -87.4622 -7.6874 30.1920 26.4382 -37.6382 -9.1540 -0.0000 -0.0000 9.0191 5.6751 38.1086 3.5095 -7.1250 0.0000 -0.0000 -36.7256 64.5499 -18.5468 0.0000 0.0000 0.0000 87.4993 9.9075 30.1501 -24.6611 35.8556 -8.0906 0.0000 -0.0000 -7.4113 -16.6008 14.4534 -4.2556 7.1250 -0.0000 -0.0000 7.4063 -15.0121 5.2802
10.6919 17.8302 -12.2899 6.2105 -49.6420 -0.2090 0.0000 0.0000 0.0000 -26.3380 7.1273 -9.0302 0.6429 5.1295 14.2784 0.4284 -4.3949 -11.6425 0.2636 -3.3027 -9.1226 0.0000 0.0000 0.0000 6.2113 -1.1145 -6.9427 -1.3716 -7.4118 20.9411 -0.4827 -9.9304 -20.2642 -0.6628 5.2069 -14.4996 -3.5008 2.4481 -3.1468 0.8444 3.3723 -0.2374 2.9617 1.6644 1.2655 -3.6882 8.4042 -19.4275 3.5878 11.9903 24.3335 3.5850 5.5629 10.5395 0.0000 -0.0000 0.0000 -87.6859 -7.3713 29.9657 26.3568 -37.5589 -9.1043 -0.0000 -0.0000 9.0483 4.8386 38.2080 2.9971 -7.1250 0.0000 -0.0000 -37.6997 64.3964 -18.9732 0.0000 -0.0000 0.0000 87.4273 9.7140 30.1758 -24.5375 35.7275 -8.0183 0.0000 -0.0000 -7.3806 -16.8595 14.1172 -4.2274 7.1250 -0.0000 -0.0000 7.2247 -15.3349 5.0981
10.7006 17.8311 -12.2860 6.2469 -49.4706 -0.2359 0.0000 0.0000 0.0000 -26.3914 7.1345 -9.0879 0.6482 5.1501 14.3372 0.4269 -4.6109 -11.6277 0.2525 -3.2334 -8.9292 0.0000 0.0000 0.0000 6.1731 -1.2519 -7.0012 -1.3724 -7.4138 20.9473 -0.4588 -10.1116 -20.1998 -0.7412 5.4997 -15.3395 -3.4810 2.3685 -2.9838 0.8292 3.2588 -0.3210 2.9207 1.6124 1.0988 -3.6857 8.4067 -19.5387 3.6754 11.9787 24.4927 3.6284 5.5621 10.6126 0.0000 0.0000 0.0000 -87.7510 -7.1521 29.8879 26.1245 -37.3314 -8.9630 -0.0000 -0.0000 9.0341 4.6401 38.4083 2.8866 -7.1250 0.0000 -0.0000 -38.1698 64.4964 -19.3307 0.0000 0.0000 0.0000 87.3731 9.4546 30.2271 -24.3975 35.5818 -7.9367 0.0000 -0.0000 -7.6314 -16.8874 14.0041 -4.2016 7.1250 -0.0000 -0.0000 7.2039 -15.4491 5.0654
10.7077 17.8278 -12.2852 6.3620 -49.3019 -0.3842 0.0000 0.0000 0.0000 -26.4770 7.2616 -9.1222 0.6519 5.1646 14.3785 0.4227 -4.8831 -11.5818 0.2539 -3.2421 -8.9535 0.0000 0.0000 0.0000 6.0862 -1.3440 -6.9288 -1.3719 -7.4124 20.9431 -0.4366 -10.3161 -20.1784 -0.7755 5.6226 -15.6933 -3.5313 2.2950 -2.8085 0.7714 3.1566 -0.3405 2.8775 1.5637 0.9890 -3.2638 8.3326 -19.2346 3.2061 11.8461 24.1192 3.3499 5.4934 10.4899 -0.0000 0.0000 0.0000 -87.7622 -7.0494 29.7892 25.7869 -36.9975 -8.7591 -0.0000 -0.0000 9.1031 4.8444 38.1979 3.0001 -7.1250 0.0000 -0.0000 -37.6803 64.3901 -18.9567 -0.0000 0.0000 0.0000 87.4096 9.1961 30.0881 -24.2606 35.4386 -7.8571 0.0000 -0.0000 -7.6879 -16.2370 14.1834 -4.0816 7.1250 -0.0000 -0.0000 7.6502 -15.3214 5.4060
10.7115 17.8262 -12.2816 6.2905 -49.3048 -0.4155 0.0000 0.0000 0.0000 -26.4212 7.2604 -9.0286 0.6520 5.1649 14.3794 0.4238 -4.8329 -11.5951 0.2563 -3.2570 -8.9950 0.0000 0.0000 0.0000 6.1458 -1.2269 -6.7791 -1.3721 -7.4131 20.9452 -0.4244 -10.4953 -20.2388 -0.7863 5.6608 -15.8034 -3.4891 2.2726 -2.7130 0.7871 3.1223 -0.3116 2.8654 1.5468 0.9691 -2.8899 8.2923 -18.9358 2.6715 11.7938 23.6977 3.0666 5.4506 10.3486 -0.0000 0.0000 0.0000 -87.8996 -6.9336 29.5479 25.4512 -36.6616 -8.5579 -0.0000 -0.0000 9.4388 4.6887 37.8697 2.8823 -7.1250 0.0000 -0.0000 -37.3988 64.0921 -18.5395 -0.0000 0.0000 0.0000 87.4563 9.0194 29.7442 -24.0269 35.1927 -7.7221 0.0000 -0.0000 -7.4803 -15.7767 14.2735 -3.9847 7.1250 -0.0000 -0.0000 7.9648 -15.2687 5.6418
10.7140 17.8273 -12.2760 6.1306 -49.2855 -0.3379 0.0000 0.0000 0.0000 -26.3133 7.0430 -8.8600 0.6497 5.1561 14.3542 0.4296 -4.6252 -11.6643 0.2397 -3.1511 -8.6996 0.0000 0.0000 0.0000 6.2534 -1.1594 -6.6921 -1.3733 -7.4162 20.9545 -0.4304 -10.5018 -20.3072 -0.7701 5.6037 -15.6388 -3.4007 2.2358 -2.6804 0.8451 3.0693 -0.2904 2.8732 1.5201 0.9780 -2.2998 8.4129 -19.1322 1.9033 12.0021 23.8085 2.7600 5.4900 10.5183 -0.0000 -0.0000 0.0000 -88.1346 -6.7797 29.1615 25.0729 -36.2784 -8.3330 -0.0000 -0.0000 10.0187 4.5069 37.8856 2.7712 -7.1250 0.0000 -0.0000 -37.6014 64.0550 -18.6220 -0.0000 -0.0000 0.0000 87.5232 8.9499 29.3804 -23.6632 34.8060 -7.5134 0.0000 -0.0000 -7.2805 -15.9832 14.3786 -4.0685 7.1250 -0.0000 -0.0000 7.8254 -15.1434 5.5623
10.7155 17.8259 -12.2677 6.1937 -49.2419 -0.3935 0.0000 0.0000 0.0000 -26.3819 7.0162 -8.8288 0.6514 5.1625 14.3726 0.4344 -4.6367 -11.7290 0.2332 -3.1082 -8.5800 0.0000 0.0000 0.0000 6.1731 -1.1588 -6.6242 -1.3688 -7.4045 20.9194 -0.4464 -10.3866 -20.3539 -0.7195 5.4203 -15.1113 -3.4122 2.2192 -2.7298 0.8282 3.0499 -0.2571 2.8650 1.5087 1.0417 -1.7259 8.5044 -19.3904 1.2328 12.1527 23.9860 2.4875 5.5099 10.7202 0.0000 0.0000 0.0000 -88.2746 -6.6890 28.9296 24.6657 -35.8603 -8.0932 -0.0000 -0.0000 10.3429 4.4156 38.1581 2.7314 -7.1250 0.0000 -0.0000 -38.0551 64.2413 -19.0420 0.0000 0.0000 0.0000 87.5919 8.8522 29.0150 -23.3618 34.4820 -7.3421 0.0000 -0.0000 -7.3107 -15.9274 14.6089 -4.1169 7.1250 -0.0000 -0.0000 7.8661 -14.9124 5.6311
